<?xml version="1.0" encoding="UTF-8"?>
<svg width="20px" height="20px" viewBox="0 0 20 20" version="1.1" xmlns="http://www.w3.org/2000/svg" xmlns:xlink="http://www.w3.org/1999/xlink">
    <title>公交</title>
    <g id="智能排划0106" stroke="none" stroke-width="1" fill="none" fill-rule="evenodd">
        <g id="人工排划详情" transform="translate(-1074.000000, -168.000000)" fill="#FFFFFF">
            <g id="矩形" transform="translate(980.000000, 156.000000)">
                <g id="公交" transform="translate(94.000000, 12.000000)">
                    <rect id="矩形备份" opacity="0" x="0" y="0" width="20" height="20"></rect>
                    <g id="编组" transform="translate(3.000000, 2.000000)" fill-rule="nonzero">
                        <path d="M13.444444,11.7356077 L13.444444,12.554371 C13.444444,12.8159204 13.4145674,13.0433547 13.3548144,13.2366738 C13.2950613,13.4299929 13.1875057,13.583511 13.0321477,13.6972282 C12.8767897,13.8109453 12.6437526,13.8678038 12.3330366,13.8678038 L12.3330366,14.9253731 C12.3330366,15.2210377 12.2224934,15.4740583 12.001407,15.684435 C11.7803206,15.8948117 11.5144194,16 11.2037033,16 C10.8929873,16 10.6300737,15.8948117 10.4149626,15.684435 C10.1998515,15.4740583 10.092296,15.2210377 10.0922959,14.9253731 L10.0922959,13.8678038 L3.35214802,13.8678038 L3.35214802,14.9253731 C3.35214802,15.2210377 3.24459247,15.4740583 3.02948136,15.684435 C2.81437025,15.8948117 2.55145668,16 2.24074065,16 C1.93002462,16 1.6641234,15.8948117 1.44303698,15.684435 C1.22195056,15.4740583 1.11140735,15.2210377 1.11140736,14.9253731 L1.11140736,13.8678038 C0.812641939,13.8678038 0.585580216,13.8109453 0.430222195,13.6972282 C0.274864173,13.583511 0.16730862,13.4299929 0.107555535,13.2366738 C0.0478024499,13.0433547 0.0149382562,12.8187633 0.0089629537,12.5628998 C0.00298765123,12.3070363 0,12.0312722 0,11.7356077 L0,2.13219617 C0,1.83653163 0.0597530851,1.56076759 0.179259255,1.30490406 C0.298765425,1.04904052 0.460098755,0.824449192 0.663259244,0.631130071 C0.866419734,0.43781095 1.10244442,0.284292825 1.37133329,0.170575695 C1.64022217,0.056858565 1.93002463,0 2.24074067,0 L11.2037033,0 C11.5144194,0 11.8042218,0.056858565 12.0731107,0.170575695 C12.3419996,0.284292825 12.5780243,0.43781095 12.7811848,0.631130071 C12.9843452,0.824449192 13.1456786,1.04904052 13.2651847,1.30490406 C13.3846909,1.56076759 13.444444,1.83653163 13.444444,2.13219617 L13.444444,11.7356077 L13.444444,11.7356077 Z M4.44562946,1.05756929 C4.29027144,1.05756929 4.15881465,1.108742 4.0512591,1.21108742 C3.94370354,1.31343283 3.88992577,1.43852168 3.88992577,1.58635395 C3.88992577,1.74555793 3.94370354,1.87633263 4.0512591,1.97867804 C4.15881465,2.08102346 4.29027144,2.13219617 4.44562946,2.13219617 L8.99881449,2.13219617 C9.15417251,2.13219617 9.2856293,2.08102346 9.39318485,1.97867804 C9.5007404,1.87633263 9.55451818,1.74555793 9.55451818,1.58635395 C9.55451818,1.43852168 9.5007404,1.31343283 9.39318485,1.21108742 C9.2856293,1.108742 9.15417251,1.05756929 8.99881449,1.05756929 L4.44562946,1.05756929 Z M2.76059249,11.9061834 C2.98765422,11.9061834 3.18185174,11.8294243 3.34318507,11.6759062 C3.50451839,11.5223881 3.58518505,11.3375977 3.58518505,11.1215352 C3.58518505,10.9054726 3.50451839,10.7206823 3.34318507,10.5671642 C3.18185174,10.4136461 2.98765422,10.336887 2.76059249,10.336887 C2.52158015,10.336887 2.32439497,10.4136461 2.16903695,10.5671642 C2.01367893,10.7206823 1.93599992,10.9054726 1.93599992,11.1215352 C1.93599992,11.3375977 2.01367893,11.5223881 2.16903695,11.6759062 C2.32439497,11.8294243 2.52158015,11.9061834 2.76059249,11.9061834 L2.76059249,11.9061834 Z M10.6121478,11.8720682 C10.8272589,11.8720682 11.0095058,11.7981521 11.1588885,11.6503198 C11.3082712,11.5024876 11.3829625,11.326226 11.3829625,11.1215352 C11.3829625,10.9168443 11.3082712,10.7405828 11.1588885,10.5927505 C11.0095058,10.4449183 10.8272589,10.3710021 10.6121478,10.3710021 C10.385086,10.3710021 10.1968638,10.4449183 10.0474811,10.5927505 C9.89809842,10.7405828 9.82340706,10.9168443 9.82340706,11.1215352 C9.82340706,11.326226 9.89809842,11.5024876 10.0474811,11.6503198 C10.1968638,11.7981521 10.385086,11.8720682 10.6121478,11.8720682 Z M12.3330366,3.18976546 L1.11140735,3.18976546 L1.11140735,7.45415778 L12.3330366,7.45415778 L12.3330366,3.18976546 Z" id="形状"></path>
                    </g>
                </g>
            </g>
        </g>
    </g>
</svg>