<?xml version="1.0" encoding="UTF-8"?>
<svg width="20px" height="20px" viewBox="0 0 20 20" version="1.1" xmlns="http://www.w3.org/2000/svg" xmlns:xlink="http://www.w3.org/1999/xlink">
    <title>驾车</title>
    <g id="智能排划0106" stroke="none" stroke-width="1" fill="none" fill-rule="evenodd">
        <g id="人工排划详情" transform="translate(-1130.000000, -168.000000)" fill="#FFFFFF">
            <g id="矩形" transform="translate(980.000000, 156.000000)">
                <g id="驾车" transform="translate(150.000000, 12.000000)">
                    <rect id="矩形" opacity="0" x="0" y="0" width="20" height="20"></rect>
                    <g id="编组" transform="translate(2.000000, 3.000000)" fill-rule="nonzero">
                        <path d="M14.4736208,4.61172819 L13.0860034,1.20346264 C12.8258251,0.55444581 12.2592146,0 11.1915201,0 L4.80462539,0 C3.73885811,0 3.1741749,0.55444581 2.91206938,1.20346264 L1.52445194,4.61172819 C0.975186702,4.67848421 0,5.29412304 0,6.45864467 L0,11.648925 L1.56106962,11.648925 L1.56106962,12.7281473 C1.56106962,14.4341344 3.67333173,14.4137367 3.67333173,12.7281473 L3.67333173,11.648925 L12.3266683,11.648925 L12.3266683,12.7281473 C12.3266683,14.4137367 14.4389304,14.4341344 14.4389304,12.7281473 L14.4389304,11.648925 L16,11.648925 L16,6.45864467 C15.9980728,5.29412304 15.0228861,4.67848421 14.4736208,4.61172819 Z M4.00481812,1.89512916 C4.13587087,1.51869939 4.33052277,1.24611232 4.78920742,1.24054932 L11.2107926,1.24054932 C11.6656227,1.24425799 11.8622019,1.51684506 11.9932546,1.89512916 L13.0378222,4.53199184 L2.96025054,4.53199184 L4.00481812,1.89512916 Z M3.39580824,9.02318834 C2.73476271,9.02318834 2.1989882,8.49841187 2.1989882,7.84939503 C2.1989882,7.2003782 2.73476271,6.67374739 3.39580824,6.67374739 C4.05685377,6.67374739 4.59262828,7.19852386 4.59262828,7.84939503 C4.59262828,8.49841187 4.05685377,9.02318834 3.39580824,9.02318834 Z M12.6003373,9.02318834 C11.9392917,9.02318834 11.4035172,8.49841187 11.4035172,7.84939503 C11.4035172,7.2003782 11.9392917,6.67374739 12.6003373,6.67374739 C13.2613828,6.67374739 13.7971625,7.19852386 13.7971625,7.84939503 C13.7990846,8.49841187 13.26331,9.02318834 12.6003373,9.02318834 Z" id="形状"></path>
                    </g>
                </g>
            </g>
        </g>
    </g>
</svg>