<?xml version="1.0" encoding="UTF-8"?>
<svg width="14px" height="14px" viewBox="0 0 14 14" version="1.1" xmlns="http://www.w3.org/2000/svg" xmlns:xlink="http://www.w3.org/1999/xlink">
    <title>路线</title>
    <g id="智能排划0106" stroke="none" stroke-width="1" fill="none" fill-rule="evenodd">
        <g id="地图样式1" transform="translate(-343.000000, -165.000000)" fill="#FFFFFF" fill-rule="nonzero">
            <g id="编组-7" transform="translate(322.000000, 156.000000)">
                <g id="路线" transform="translate(21.000000, 9.000000)">
                    <path d="M13.8195165,1.84623671 L12.205203,0.20754339 C11.915717,-0.0691811301 11.4644361,-0.0691811301 11.1749501,0.20754339 L9.56314323,1.84878523 C9.42614058,1.98747742 9.34912383,2.17594235 9.34912383,2.37250448 C9.34912383,2.5690666 9.42614058,2.75753154 9.56314323,2.89622373 C9.69955987,3.03551172 9.88493261,3.11381318 10.0782697,3.11381318 C10.2716068,3.11381318 10.4569795,3.03551172 10.5933961,2.89622373 L10.9869477,2.49610733 L10.9869477,10.6513463 C11.0102328,11.2508256 10.7089353,11.8151822 10.201817,12.121965 C9.69469867,12.4287478 9.06310318,12.4287478 8.55598487,12.121965 C8.04886655,11.8151822 7.74756909,11.2508256 7.77085412,10.6513463 L7.77085412,3.5613854 C7.72334115,1.86982846 6.36087035,0.523622558 4.69638895,0.523622558 C3.03190756,0.523622558 1.66943676,1.86982846 1.62192379,3.5613854 L1.62192379,11.4847097 L1.25093246,11.0947874 C0.965743774,10.803434 0.502239276,10.802293 0.21566618,11.0922389 C-0.0709069149,11.3821848 -0.0720292089,11.853421 0.213159466,12.1447744 L1.82747302,13.7834677 C2.11218622,14.0721774 2.57301272,14.0721774 2.85772592,13.7834677 L4.46953278,12.1422259 C4.7297985,11.8491224 4.71852221,11.4000828 4.44388432,11.1208637 C4.16924642,10.8416445 3.72757434,10.8301802 3.43927987,11.0947874 L3.08332875,11.4592246 L3.08332875,3.55883689 C3.117534,2.67546902 3.8318551,1.97725981 4.70140235,1.97725981 C5.57094959,1.97725981 6.2852707,2.67546902 6.31947594,3.55883689 L6.31947594,10.6411522 C6.36690981,12.327136 7.72491464,13.6688666 9.38391433,13.6688666 C11.042914,13.6688666 12.4009188,12.327136 12.4483527,10.6411522 L12.4483527,2.54198054 L12.7817436,2.89367522 C13.070038,3.15828242 13.5117101,3.14681804 13.786348,2.86759892 C14.0609859,2.5883798 14.0722622,2.13934021 13.8119964,1.84623671 L13.8195165,1.84623671 Z" id="路径"></path>
                </g>
            </g>
        </g>
    </g>
</svg>