<?xml version="1.0" encoding="UTF-8"?>
<svg width="20px" height="20px" viewBox="0 0 20 20" version="1.1" xmlns="http://www.w3.org/2000/svg" xmlns:xlink="http://www.w3.org/1999/xlink">
    <title>骑行</title>
    <g id="智能排划0106" stroke="none" stroke-width="1" fill="none" fill-rule="evenodd">
        <g id="人工排划详情" transform="translate(-1186.000000, -168.000000)" fill="#FFFFFF">
            <g id="矩形" transform="translate(980.000000, 156.000000)">
                <g id="骑行" transform="translate(206.000000, 12.000000)">
                    <rect id="矩形备份-2" opacity="0" x="0" y="0" width="20" height="20"></rect>
                    <g id="编组" transform="translate(10.000000, 10.000000) scale(-1, 1) translate(-10.000000, -10.000000) translate(1.000000, 3.000000)" fill-rule="nonzero">
                        <path d="M7.475534,4.89353515 L1.00093148,4.89353515 C0.83395956,4.89353515 0.698960989,5.03001539 0.698960989,5.19881991 C0.698960989,5.36762442 0.83395956,5.50410467 1.00093148,5.50410467 L7.475534,5.50410467 C7.64250592,5.50410467 7.77750449,5.36762442 7.77750449,5.19881991 C7.77750449,5.03001539 7.64250592,4.89353515 7.475534,4.89353515 Z" id="路径"></path>
                        <path d="M17.9414759,10.5323243 C17.7833854,9.74756285 17.3091141,9.06516162 16.6341213,8.64674192 L16.6341213,8.28399179 C16.6572131,8.27321703 16.6874102,8.26962545 16.7211598,8.26962545 C16.9183288,8.26962545 17.2753645,8.41688045 17.493849,8.51744484 C17.5329276,8.53540277 17.5755587,8.54438173 17.6181898,8.54438173 C17.6963469,8.54438173 17.7745039,8.51385326 17.8313455,8.4545921 C17.9396996,8.34504874 17.9396996,8.15469472 17.8437795,8.0361724 C17.05688,7.07721909 14.5078938,6.77013853 14.5078938,6.77013853 L12.7653464,2.08850693 C12.7475835,2.04181632 12.7831094,1.99153412 12.8310694,1.99153412 L14.0975692,1.99153412 C14.4119737,1.99153412 14.6659842,1.73473576 14.6659842,1.41688045 L14.6659842,0.574653669 C14.6659842,0.256798358 14.4119737,0 14.0975692,0 L12.3283774,0 C12.1596292,0 12.0015387,0.075423294 11.8931846,0.204720369 L11.1364821,1.11518728 C10.9766154,1.30913289 10.7563545,1.44381734 10.5130019,1.49769112 L9.22163395,1.78860954 C9.04222795,1.82991278 8.93742643,2.01847101 8.99604423,2.1944587 C9.03867536,2.32195998 9.15768725,2.40456644 9.28735693,2.40456644 C9.30334361,2.40456644 9.31755398,2.40277065 9.33354066,2.40097486 L10.1612951,2.27347358 C10.7670123,2.18009236 11.3372037,2.58953309 11.4491104,3.20010262 C11.7297653,4.72832222 12.0619328,7.3214469 12.0619328,7.3214469 C11.2697044,7.80451514 10.6337901,9.28065675 10.6337901,9.28065675 L8.72959968,9.28065675 C8.14697427,8.79579271 7.96046308,7.86736788 7.90006898,7.28553104 C7.86987194,6.99281683 7.62651925,6.76834274 7.33520654,6.76834274 L1.11639078,6.76834274 C0.844617342,6.76834274 0.61014614,6.96228835 0.558633527,7.23165726 C0.462713489,7.72909184 0.230018584,8.3073371 0.0506125878,8.71139046 C-0.0612941225,8.96280144 0.016862945,9.26090303 0.240676366,9.41713699 C0.428963847,9.55002565 0.619027625,9.72601334 0.764683978,9.87326834 C0.448503114,11.4409954 1.44500572,12.9674192 2.99038411,13.2870703 C3.18222418,13.3265777 3.37584055,13.3463315 3.56590433,13.3463315 C4.65299809,13.3463315 5.66903997,12.7160082 6.14864015,11.6906106 L12.3425878,11.6906106 C12.6196901,13.0590046 13.8098091,14 15.1384792,14 C15.328543,14 15.5203831,13.9802463 15.7139994,13.9407388 C17.2611541,13.6210877 18.2576567,12.0946639 17.9414759,10.5323243 Z M3.3491961,12.1862494 C2.76124179,12.1862494 2.2851942,11.7049769 2.2851942,11.1105695 C2.2851942,10.5161621 2.76124179,10.0348897 3.3491961,10.0348897 C3.9371504,10.0348897 4.41319799,10.5161621 4.41142665,11.1105695 C4.41142665,11.7049769 3.9371504,12.1862494 3.3491961,12.1862494 Z M15.1420318,12.1862494 C14.5540775,12.1862494 14.0780299,11.7049769 14.0780299,11.1123653 C14.0780299,10.5179579 14.5540775,10.0366855 15.1402555,10.0366855 L15.1420318,10.0366855 C15.7299861,10.0366855 16.2060337,10.5179579 16.2042624,11.1123653 C16.2042624,11.7049769 15.7282098,12.1862494 15.1420318,12.1862494 Z" id="形状"></path>
                    </g>
                </g>
            </g>
        </g>
    </g>
</svg>