<?xml version="1.0" standalone="no"?><!DOCTYPE svg PUBLIC "-//W3C//DTD SVG 1.1//EN" "http://www.w3.org/Graphics/SVG/1.1/DTD/svg11.dtd">
<svg  t="1688030594546" class="icon" viewBox="0 0 1024 1024" version="1.1" xmlns="http://www.w3.org/2000/svg" p-id="2179" xmlns:xlink="http://www.w3.org/1999/xlink" width="200" height="200">
  <path d="M640.05 166.5H149.79c-47.18 0-85.79 38.6-85.79 85.79V596.8c0 47.19 38.61 85.79 85.79 85.79h34.83l70.83 119.89 67.63-119.89h316.98c47.19 0 85.79-38.61 85.79-85.79V252.29c-0.01-47.19-38.61-85.79-85.8-85.79zM394.51 578.65c-21.55-0.81-34.33-16.03-34.33-35.97 0-19.15 15.17-35.14 34.33-35.14 19.96 0 35.16 15.98 35.16 35.14 0 21.6-15.2 35.97-35.16 35.97z m33.27-103.9c-6.2 1.65-28.72 7.88-33.41 7.88-4.7 0-27.67-6.23-32.32-7.88-12.53-102.4-19.54-194.2-19.54-206.85 0-15.91 26.58-16.76 50.07-16.76 29.79 0 54.76 0.84 54.76 16.76 0 12.65-10.16 104.44-19.56 206.85z" fill="#666666" p-id="2180"></path>
  <path d="M901.93 427.01H776.72V639.6c0 47.19-38.61 85.79-85.79 85.79h-178.2c3.57 28.58 27.85 50.96 57.35 50.96h214.56l45.78 81.15 47.94-81.15h23.57c31.94 0 58.07-26.13 58.07-58.07v-233.2c0-31.94-26.13-58.07-58.07-58.07z" fill="#666666" p-id="2181"></path>
</svg>