<svg xmlns="http://www.w3.org/2000/svg" xmlns:xlink="http://www.w3.org/1999/xlink" fill="none" version="1.1" width="24" height="24" viewBox="0 0 24 24"><defs><clipPath id="master_svg0_16076_19848"><rect x="0" y="0" width="24" height="24" rx="0"/></clipPath></defs><g clip-path="url(#master_svg0_16076_19848)"><g><path d="M8,4L21,4L21,6L8,6L8,4ZM5,3L5,6L6,6L6,7L3,7L3,6L4,6L4,4L3,4L3,3L5,3ZM3,14L3,11.5L5,11.5L5,11L3,11L3,10L6,10L6,12.5L4,12.5L4,13L6,13L6,14L3,14ZM5,19.5L3,19.5L3,18.5L5,18.5L5,18L3,18L3,17L6,17L6,21L3,21L3,20L5,20L5,19.5ZM8,11L21,11L21,13L8,13L8,11ZM8,18L21,18L21,20L8,20L8,18Z" fill="#333333" fill-opacity="1"/></g></g></svg>