<svg xmlns="http://www.w3.org/2000/svg" xmlns:xlink="http://www.w3.org/1999/xlink" fill="none" version="1.1" width="24" height="24" viewBox="0 0 24 24"><defs><clipPath id="master_svg0_16076_19852"><rect x="0" y="0" width="24" height="24" rx="0"/></clipPath></defs><g clip-path="url(#master_svg0_16076_19852)"><g><path d="M8,4L21,4L21,6L8,6L8,4ZM4.5,6.5C3.671573,6.5,3,5.82843,3,5C3,4.171573,3.671573,3.500000238419,4.5,3.5C5.32843,3.500000238419,6,4.171573,6,5C6,5.82843,5.32843,6.5,4.5,6.5ZM4.5,13.5C3.671573,13.5,3,12.82843,3,12C3,11.17157,3.671573,10.5,4.5,10.5C5.32843,10.5,6,11.17157,6,12C6,12.82843,5.32843,13.5,4.5,13.5ZM4.5,20.4C3.671573,20.4,3,19.7284,3,18.9C3,18.0716,3.671573,17.4,4.5,17.4C5.32843,17.4,6,18.0716,6,18.9C6,19.7284,5.32843,20.4,4.5,20.4ZM8,11L21,11L21,13L8,13L8,11ZM8,18L21,18L21,20L8,20L8,18Z" fill="#333333" fill-opacity="1"/></g></g></svg>