<svg xmlns="http://www.w3.org/2000/svg" xmlns:xlink="http://www.w3.org/1999/xlink" fill="none" version="1.1" width="24" height="24" viewBox="0 0 24 24"><defs><clipPath id="master_svg0_16076_19840"><rect x="0" y="0" width="24" height="24" rx="0"/></clipPath></defs><g clip-path="url(#master_svg0_16076_19840)"><g><path d="M17.154,14C17.384,14.516,17.5,15.09,17.5,15.72C17.5,17.061999999999998,16.976,18.112000000000002,15.929,18.867C14.88,19.622,13.433,20,11.586,20C9.946,20,8.323,19.619,6.716,18.856L6.716,16.6C8.236,17.477,9.791,17.916,11.382,17.916C13.933,17.916,15.212,17.183999999999997,15.221,15.719C15.2317,15.1188,14.9977,14.5402,14.573,14.116L14.453,13.999L3,13.999L3,11.998999999999999L21,11.998999999999999L21,13.999L17.154,14L17.154,14ZM13.076,11L7.629,11C7.45383,10.84028,7.29289,10.66562,7.148,10.478C6.716,9.92,6.5,9.246,6.5,8.452C6.5,7.216,6.966,6.165,7.897,5.2989999999999995C8.83,4.433,10.271,4,12.222,4C13.693,4,15.101,4.328,16.444000000000003,4.984L16.444000000000003,7.136C15.244,6.449,13.929,6.106,12.498,6.106C10.018,6.106,8.779,6.888,8.779,8.452C8.779,8.872,8.997,9.238,9.433,9.551C9.869,9.864,10.407,10.113,11.046,10.301C11.666,10.481,12.343,10.715,13.076,11Z" fill="#333333" fill-opacity="1"/></g></g></svg>