<svg xmlns="http://www.w3.org/2000/svg" xmlns:xlink="http://www.w3.org/1999/xlink" fill="none" version="1.1" width="24" height="24" viewBox="0 0 24 24"><defs><clipPath id="master_svg0_16076_19828"><rect x="0" y="0" width="24" height="24" rx="0"/></clipPath></defs><g clip-path="url(#master_svg0_16076_19828)"><g><path d="M8,11L12.5,11C13.88071,11,15,9.88071,15,8.5C15,7.1192899999999995,13.88071,6,12.5,6L8,6L8,11ZM18,15.5C18,17.985300000000002,15.98528,20,13.5,20L6,20L6,4L12.5,4C14.30073,4.0000748634,15.92804,5.07364,16.636699999999998,6.72907C17.345399999999998,8.3845,16.9989,10.302990000000001,15.756,11.606C17.1453,12.41051,18.000500000000002,13.89454,18,15.5ZM8,13L8,18L13.5,18C14.88071,18,16,16.880699999999997,16,15.5C16,14.1193,14.88071,13,13.5,13L8,13Z" fill="#333333" fill-opacity="1"/></g></g></svg>