<?xml version="1.0" encoding="UTF-8"?>
<svg width="16px" height="16px" viewBox="0 0 16 16" version="1.1" xmlns="http://www.w3.org/2000/svg" xmlns:xlink="http://www.w3.org/1999/xlink">
    <title>编组 38</title>
    <g id="客服页面" stroke="none" stroke-width="1" fill="none" fill-rule="evenodd">
        <g id="比亚迪-客户之声-指标详情" transform="translate(-344.000000, -1457.000000)">
            <g id="编组-38" transform="translate(344.000000, 1457.000000)">
                <rect id="矩形" x="0" y="0" width="16" height="16"></rect>
                <path d="M12.9821429,10.7857143 C13.3667697,10.7857143 13.6785714,11.097516 13.6785714,11.4821429 L13.6785714,13.5714286 C13.6785714,13.6112297 13.6752326,13.650251 13.6688198,13.6882277 C13.6752326,13.724749 13.6785714,13.7637703 13.6785714,13.8035714 C13.6785714,14.1561461 13.4165714,14.4475273 13.0766441,14.4936424 L12.9821429,14.5 L3.69642857,14.5 C3.31180169,14.5 3,14.1881983 3,13.8035714 C3,13.7637703 3.0033388,13.724749 3.00975159,13.6867723 C3.0033388,13.650251 3,13.6112297 3,13.5714286 L3,11.4821429 C3,11.097516 3.31180169,10.7857143 3.69642857,10.7857143 C4.08105545,10.7857143 4.39285714,11.097516 4.39285714,11.4821429 L4.392,13.107 L12.285,13.107 L12.2857143,11.4821429 C12.2857143,11.097516 12.597516,10.7857143 12.9821429,10.7857143 Z M8.3073326,1.5 C8.49233283,1.50023058 8.66951272,1.573945 8.79998024,1.70490238 L8.87124188,1.78874374 C8.95672723,1.90713773 9.00340519,2.05028568 9.00303536,2.19816973 L8.98685827,9.22992187 L11.2722831,6.96326993 C11.5453721,6.69240458 11.986327,6.69420718 12.2571879,6.96729172 C12.5280488,7.24037626 12.5262462,7.68133117 12.2531617,7.95219209 L8.72834599,11.4437971 L8.63532541,11.5081662 L8.50520725,11.5655461 L8.4571199,11.5794235 L8.32800783,11.5967634 L8.22916575,11.5958566 L8.05106777,11.5602215 L7.94558748,11.5119227 L7.91784227,11.4955359 L7.97471542,11.5130469 L7.90394824,11.4875327 L7.82096906,11.4237208 L4.36728786,7.95235498 C4.1662349,7.75402884 4.10524756,7.45243323 4.21386667,7.19054261 C4.32248578,6.92865199 4.57902628,6.75875102 4.86253997,6.76094096 L4.97212415,6.76958616 C5.11631346,6.79263878 5.25107519,6.86109007 5.35557826,6.96649135 L7.59400113,9.21947545 L7.60999749,2.19527101 C7.61059794,1.81097065 7.9223916,1.5 8.3073326,1.5 Z" id="形状结合" fill="#3270FF" fill-rule="nonzero"></path>
            </g>
        </g>
    </g>
</svg>