<?xml version="1.0" encoding="UTF-8"?>
<svg width="16px" height="16px" viewBox="0 0 16 16" version="1.1" xmlns="http://www.w3.org/2000/svg" xmlns:xlink="http://www.w3.org/1999/xlink">
    <title>编组 39</title>
    <g id="客服页面" stroke="none" stroke-width="1" fill="none" fill-rule="evenodd">
        <g id="比亚迪-客户之声-指标详情" transform="translate(-1111.000000, -1457.000000)">
            <g id="编组-39" transform="translate(1111.000000, 1457.000000)">
                <rect id="矩形备份-4" x="0" y="0" width="16" height="16"></rect>
                <path d="M14.2198932,14.610858 L1.77828408,14.610858 C1.34813175,14.610858 1,14.2627262 1,13.8325739 C1,13.4024216 1.34813175,13.0542898 1.77828408,13.0542898 L14.2217159,13.0542898 C14.6518682,13.0542898 15,13.4024216 15,13.8325739 C14.9981773,14.2627262 14.6500456,14.610858 14.2198932,14.610858 L14.2198932,14.610858 Z M4.11131363,10.7212603 L4.11131363,2.16742612 C4.11131363,1.73727379 3.76318188,1.38914204 3.33302955,1.38914204 C2.90287723,1.38914204 2.55474548,1.73727379 2.55474548,2.16742612 L2.55474548,10.7212603 C2.55474548,11.1514126 2.90287723,11.4995443 3.33302955,11.4995443 C3.76318188,11.4995443 4.11131363,11.1514126 4.11131363,10.7212603 Z M8.77737274,10.7212603 L8.77737274,4.50045567 C8.77737274,4.07030335 8.42924098,3.72217159 7.99908866,3.72217159 C7.56893634,3.72217159 7.22080458,4.07030335 7.22080458,4.50045567 L7.22080458,10.7212603 C7.22080458,11.1514126 7.56893634,11.4995443 7.99908866,11.4995443 C8.42924098,11.4995443 8.77737274,11.1514126 8.77737274,10.7212603 Z M13.4434318,10.7212603 L13.4434318,6.83348522 C13.4434318,6.4033329 13.0953001,6.05520115 12.6651478,6.05520115 C12.2349954,6.05520115 11.8868637,6.4033329 11.8868637,6.83348522 L11.8868637,10.7212603 C11.8868637,11.1514126 12.2349954,11.4995443 12.6651478,11.4995443 C13.0953001,11.4995443 13.4434318,11.1514126 13.4434318,10.7212603 Z" id="形状" fill="#3270FF" fill-rule="nonzero" transform="translate(8.000000, 8.000000) rotate(90.000000) translate(-8.000000, -8.000000) "></path>
            </g>
        </g>
    </g>
</svg>