<?xml version="1.0" encoding="UTF-8"?>
<svg width="16px" height="16px" viewBox="0 0 16 16" version="1.1" xmlns="http://www.w3.org/2000/svg" xmlns:xlink="http://www.w3.org/1999/xlink">
    <title>编组 39</title>
    <g id="客服页面" stroke="none" stroke-width="1" fill="none" fill-rule="evenodd">
        <g id="比亚迪-客户之声-指标详情" transform="translate(-320.000000, -1457.000000)">
            <g id="编组-39" transform="translate(320.000000, 1457.000000)">
                <rect id="矩形备份-4" x="0" y="0" width="16" height="16"></rect>
                <g id="编组" transform="translate(1.500000, 1.500000)" fill="#3270FF" fill-rule="nonzero">
                    <path d="M1.44443216,0.722326652 L1.44443216,10.8333518 C1.44443216,11.2322207 1.76777932,11.5555678 2.16664825,11.5555678 L12.2776734,11.5555678 C12.6764991,11.5556289 12.9997789,11.8789582 12.9997789,12.2777839 C12.9997789,12.6766097 12.6764991,13 12.2776734,13 L1.44443216,13 C1.06134494,13 0.693947966,12.8478192 0.423064391,12.5769356 C0.152180816,12.306052 0,11.9386551 0,11.5555678 L0,0.722326652 C0,0.464277364 0.137605469,0.225813086 0.361076125,0.0967770369 C0.584546782,-0.0322590123 0.859885389,-0.0322590123 1.08335605,0.0967770369 C1.3068267,0.225813086 1.44447167,0.464277364 1.44443216,0.722326652 Z M12.1873894,3.70147489 C12.4693295,3.98350016 12.4693295,4.44066314 12.1873894,4.72268842 L9.08691581,7.82316205 C8.80489054,8.10510216 8.34772754,8.10510216 8.06570227,7.82316205 L6.40966081,6.16784279 L3.81979394,8.75698744 C3.53641156,9.03068697 3.08596137,9.02677255 2.80737834,8.74818952 C2.5287953,8.46960649 2.52488087,8.0191563 2.7985804,7.73577391 L5.89905403,4.63530028 C6.1810793,4.35336017 6.6382423,4.35336017 6.92026757,4.63530028 L8.57630905,6.29061954 L11.1661759,3.70147489 C11.4482012,3.41953478 11.9053642,3.41953478 12.1873894,3.70147489 L12.1873894,3.70147489 Z" id="形状"></path>
                    <path d="M1.44443216,0.722326652 L1.44443216,10.8333518 C1.44443216,11.2322207 1.76777932,11.5555678 2.16664825,11.5555678 L12.2776734,11.5555678 C12.6764991,11.5556289 12.9997789,11.8789582 12.9997789,12.2777839 C12.9997789,12.6766097 12.6764991,13 12.2776734,13 L1.44443216,13 C1.06134494,13 0.693947966,12.8478192 0.423064391,12.5769356 C0.152180816,12.306052 0,11.9386551 0,11.5555678 L0,0.722326652 C0,0.464277364 0.137605469,0.225813086 0.361076125,0.0967770369 C0.584546782,-0.0322590123 0.859885389,-0.0322590123 1.08335605,0.0967770369 C1.3068267,0.225813086 1.44447167,0.464277364 1.44443216,0.722326652 Z M12.1873894,3.70147489 C12.4693295,3.98350016 12.4693295,4.44066314 12.1873894,4.72268842 L9.08691581,7.82316205 C8.80489054,8.10510216 8.34772754,8.10510216 8.06570227,7.82316205 L6.40966081,6.16784279 L3.81979394,8.75698744 C3.53641156,9.03068697 3.08596137,9.02677255 2.80737834,8.74818952 C2.5287953,8.46960649 2.52488087,8.0191563 2.7985804,7.73577391 L5.89905403,4.63530028 C6.1810793,4.35336017 6.6382423,4.35336017 6.92026757,4.63530028 L8.57630905,6.29061954 L11.1661759,3.70147489 C11.4482012,3.41953478 11.9053642,3.41953478 12.1873894,3.70147489 L12.1873894,3.70147489 Z" id="形状"></path>
                </g>
            </g>
        </g>
    </g>
</svg>